<mxfile host="Electron" modified="2023-10-10T13:21:12.792Z" agent="Mozilla/5.0 (Windows NT 10.0; Win64; x64) AppleWebKit/537.36 (KHTML, like Gecko) draw.io/21.6.5 Chrome/114.0.5735.243 Electron/25.3.1 Safari/537.36" etag="4eOk-0PCsuwBMA4wTfM_" version="21.6.5" type="device">
  <diagram id="C5RBs43oDa-KdzZeNtuy" name="Page-1">
    <mxGraphModel dx="1050" dy="621" grid="0" gridSize="8" guides="1" tooltips="1" connect="1" arrows="1" fold="1" page="1" pageScale="1" pageWidth="827" pageHeight="1169" math="0" shadow="0">
      <root>
        <mxCell id="WIyWlLk6GJQsqaUBKTNV-0" />
        <mxCell id="WIyWlLk6GJQsqaUBKTNV-1" parent="WIyWlLk6GJQsqaUBKTNV-0" />
        <mxCell id="7ZoPHkDEJBF7AUJrN_ak-0" value="" style="swimlane;startSize=0;strokeWidth=2;" parent="WIyWlLk6GJQsqaUBKTNV-1" vertex="1">
          <mxGeometry x="160" y="21" width="480" height="1035" as="geometry" />
        </mxCell>
        <mxCell id="MeSb5IZgdGhtn0hRe0pQ-0" value="Login" style="shape=ellipse;html=1;dashed=0;whiteSpace=wrap;perimeter=ellipsePerimeter;strokeWidth=2;" parent="7ZoPHkDEJBF7AUJrN_ak-0" vertex="1">
          <mxGeometry x="121" y="59" width="226" height="48" as="geometry" />
        </mxCell>
        <mxCell id="MeSb5IZgdGhtn0hRe0pQ-2" value="Registration" style="shape=ellipse;html=1;dashed=0;whiteSpace=wrap;perimeter=ellipsePerimeter;strokeWidth=2;" parent="7ZoPHkDEJBF7AUJrN_ak-0" vertex="1">
          <mxGeometry x="134" y="124" width="208" height="40" as="geometry" />
        </mxCell>
        <mxCell id="MeSb5IZgdGhtn0hRe0pQ-3" value="Add Product" style="shape=ellipse;html=1;dashed=0;whiteSpace=wrap;perimeter=ellipsePerimeter;strokeWidth=2;" parent="7ZoPHkDEJBF7AUJrN_ak-0" vertex="1">
          <mxGeometry x="134" y="182" width="202" height="48" as="geometry" />
        </mxCell>
        <mxCell id="MeSb5IZgdGhtn0hRe0pQ-4" value="Edit/Delete&lt;br&gt;Product" style="shape=ellipse;html=1;dashed=0;whiteSpace=wrap;perimeter=ellipsePerimeter;strokeWidth=2;" parent="7ZoPHkDEJBF7AUJrN_ak-0" vertex="1">
          <mxGeometry x="138" y="253" width="192" height="40" as="geometry" />
        </mxCell>
        <mxCell id="MeSb5IZgdGhtn0hRe0pQ-5" value="View Product" style="shape=ellipse;html=1;dashed=0;whiteSpace=wrap;perimeter=ellipsePerimeter;strokeWidth=2;" parent="7ZoPHkDEJBF7AUJrN_ak-0" vertex="1">
          <mxGeometry x="139" y="320" width="192" height="40" as="geometry" />
        </mxCell>
        <mxCell id="MeSb5IZgdGhtn0hRe0pQ-6" value="Select Category" style="shape=ellipse;html=1;dashed=0;whiteSpace=wrap;perimeter=ellipsePerimeter;strokeWidth=2;" parent="7ZoPHkDEJBF7AUJrN_ak-0" vertex="1">
          <mxGeometry x="135" y="381" width="192" height="40" as="geometry" />
        </mxCell>
        <mxCell id="MeSb5IZgdGhtn0hRe0pQ-7" value="Add to Cart" style="shape=ellipse;html=1;dashed=0;whiteSpace=wrap;perimeter=ellipsePerimeter;strokeWidth=2;" parent="7ZoPHkDEJBF7AUJrN_ak-0" vertex="1">
          <mxGeometry x="139" y="442" width="184" height="40" as="geometry" />
        </mxCell>
        <mxCell id="MeSb5IZgdGhtn0hRe0pQ-8" value="Edit/Delete&lt;br&gt;Add Category" style="shape=ellipse;html=1;dashed=0;whiteSpace=wrap;perimeter=ellipsePerimeter;strokeWidth=2;" parent="7ZoPHkDEJBF7AUJrN_ak-0" vertex="1">
          <mxGeometry x="138" y="698" width="192" height="48" as="geometry" />
        </mxCell>
        <mxCell id="MeSb5IZgdGhtn0hRe0pQ-9" value="View Order" style="shape=ellipse;html=1;dashed=0;whiteSpace=wrap;perimeter=ellipsePerimeter;strokeWidth=2;" parent="7ZoPHkDEJBF7AUJrN_ak-0" vertex="1">
          <mxGeometry x="138" y="505" width="184" height="40" as="geometry" />
        </mxCell>
        <mxCell id="MeSb5IZgdGhtn0hRe0pQ-10" value="Give FeedBack" style="shape=ellipse;html=1;dashed=0;whiteSpace=wrap;perimeter=ellipsePerimeter;strokeWidth=2;" parent="7ZoPHkDEJBF7AUJrN_ak-0" vertex="1">
          <mxGeometry x="135" y="567" width="184" height="40" as="geometry" />
        </mxCell>
        <mxCell id="MeSb5IZgdGhtn0hRe0pQ-11" value="Place Order" style="shape=ellipse;html=1;dashed=0;whiteSpace=wrap;perimeter=ellipsePerimeter;strokeWidth=2;" parent="7ZoPHkDEJBF7AUJrN_ak-0" vertex="1">
          <mxGeometry x="139" y="630" width="176" height="40" as="geometry" />
        </mxCell>
        <mxCell id="MeSb5IZgdGhtn0hRe0pQ-12" value="View FeedBack" style="shape=ellipse;html=1;dashed=0;whiteSpace=wrap;perimeter=ellipsePerimeter;strokeWidth=2;" parent="7ZoPHkDEJBF7AUJrN_ak-0" vertex="1">
          <mxGeometry x="142" y="907" width="184" height="40" as="geometry" />
        </mxCell>
        <mxCell id="MeSb5IZgdGhtn0hRe0pQ-13" value="LogOut" style="shape=ellipse;html=1;dashed=0;whiteSpace=wrap;perimeter=ellipsePerimeter;strokeWidth=2;" parent="7ZoPHkDEJBF7AUJrN_ak-0" vertex="1">
          <mxGeometry x="131" y="965" width="208" height="40" as="geometry" />
        </mxCell>
        <mxCell id="MeSb5IZgdGhtn0hRe0pQ-19" value="&lt;font style=&quot;font-size: 15px;&quot;&gt;&lt;b&gt;Online Hardware Store&lt;/b&gt;&lt;/font&gt;" style="text;html=1;strokeColor=none;fillColor=none;align=center;verticalAlign=middle;whiteSpace=wrap;rounded=0;strokeWidth=2;" parent="7ZoPHkDEJBF7AUJrN_ak-0" vertex="1">
          <mxGeometry x="-24" y="11" width="240" height="30" as="geometry" />
        </mxCell>
        <mxCell id="-nEwxudWKI5WEJn0Q8ZB-4" value="View Payment" style="shape=ellipse;html=1;dashed=0;whiteSpace=wrap;perimeter=ellipsePerimeter;strokeWidth=2;" parent="7ZoPHkDEJBF7AUJrN_ak-0" vertex="1">
          <mxGeometry x="143" y="844" width="184" height="40" as="geometry" />
        </mxCell>
        <mxCell id="-nEwxudWKI5WEJn0Q8ZB-5" value="Make Payment" style="shape=ellipse;html=1;dashed=0;whiteSpace=wrap;perimeter=ellipsePerimeter;strokeWidth=2;" parent="7ZoPHkDEJBF7AUJrN_ak-0" vertex="1">
          <mxGeometry x="138" y="775" width="184" height="40" as="geometry" />
        </mxCell>
        <mxCell id="7ZoPHkDEJBF7AUJrN_ak-1" value="Admin" style="shape=umlActor;verticalLabelPosition=bottom;verticalAlign=top;html=1;outlineConnect=0;strokeWidth=2;" parent="WIyWlLk6GJQsqaUBKTNV-1" vertex="1">
          <mxGeometry x="48" y="512" width="56" height="87" as="geometry" />
        </mxCell>
        <mxCell id="7ZoPHkDEJBF7AUJrN_ak-2" value="User" style="shape=umlActor;verticalLabelPosition=bottom;verticalAlign=top;html=1;outlineConnect=0;strokeWidth=2;" parent="WIyWlLk6GJQsqaUBKTNV-1" vertex="1">
          <mxGeometry x="736" y="512" width="56" height="87" as="geometry" />
        </mxCell>
        <mxCell id="MeSb5IZgdGhtn0hRe0pQ-18" value="" style="endArrow=classic;html=1;rounded=0;entryX=0;entryY=0.5;entryDx=0;entryDy=0;exitX=1;exitY=0.3333333333333333;exitDx=0;exitDy=0;exitPerimeter=0;strokeWidth=2;" parent="WIyWlLk6GJQsqaUBKTNV-1" source="7ZoPHkDEJBF7AUJrN_ak-1" target="MeSb5IZgdGhtn0hRe0pQ-0" edge="1">
          <mxGeometry width="50" height="50" relative="1" as="geometry">
            <mxPoint x="104" y="538" as="sourcePoint" />
            <mxPoint x="154" y="488" as="targetPoint" />
          </mxGeometry>
        </mxCell>
        <mxCell id="MeSb5IZgdGhtn0hRe0pQ-21" value="" style="endArrow=classic;html=1;rounded=0;entryX=1;entryY=0.5;entryDx=0;entryDy=0;exitX=0;exitY=0.3333333333333333;exitDx=0;exitDy=0;exitPerimeter=0;strokeWidth=2;" parent="WIyWlLk6GJQsqaUBKTNV-1" source="7ZoPHkDEJBF7AUJrN_ak-2" target="MeSb5IZgdGhtn0hRe0pQ-0" edge="1">
          <mxGeometry width="50" height="50" relative="1" as="geometry">
            <mxPoint x="120" y="557" as="sourcePoint" />
            <mxPoint x="292" y="120" as="targetPoint" />
          </mxGeometry>
        </mxCell>
        <mxCell id="MeSb5IZgdGhtn0hRe0pQ-22" value="" style="endArrow=classic;html=1;rounded=0;entryX=0;entryY=0.5;entryDx=0;entryDy=0;exitX=1;exitY=0.3333333333333333;exitDx=0;exitDy=0;exitPerimeter=0;strokeWidth=2;" parent="WIyWlLk6GJQsqaUBKTNV-1" source="7ZoPHkDEJBF7AUJrN_ak-1" target="MeSb5IZgdGhtn0hRe0pQ-3" edge="1">
          <mxGeometry width="50" height="50" relative="1" as="geometry">
            <mxPoint x="128" y="565" as="sourcePoint" />
            <mxPoint x="300" y="128" as="targetPoint" />
          </mxGeometry>
        </mxCell>
        <mxCell id="MeSb5IZgdGhtn0hRe0pQ-24" value="" style="endArrow=classic;html=1;rounded=0;entryX=1;entryY=0.5;entryDx=0;entryDy=0;exitX=0;exitY=0.3333333333333333;exitDx=0;exitDy=0;exitPerimeter=0;strokeWidth=2;" parent="WIyWlLk6GJQsqaUBKTNV-1" source="7ZoPHkDEJBF7AUJrN_ak-2" target="MeSb5IZgdGhtn0hRe0pQ-6" edge="1">
          <mxGeometry width="50" height="50" relative="1" as="geometry">
            <mxPoint x="144" y="581" as="sourcePoint" />
            <mxPoint x="316" y="144" as="targetPoint" />
          </mxGeometry>
        </mxCell>
        <mxCell id="MeSb5IZgdGhtn0hRe0pQ-25" value="" style="endArrow=classic;html=1;rounded=0;entryX=1;entryY=0.5;entryDx=0;entryDy=0;exitX=0;exitY=0.3333333333333333;exitDx=0;exitDy=0;exitPerimeter=0;strokeWidth=2;" parent="WIyWlLk6GJQsqaUBKTNV-1" source="7ZoPHkDEJBF7AUJrN_ak-2" target="MeSb5IZgdGhtn0hRe0pQ-5" edge="1">
          <mxGeometry width="50" height="50" relative="1" as="geometry">
            <mxPoint x="152" y="589" as="sourcePoint" />
            <mxPoint x="324" y="152" as="targetPoint" />
          </mxGeometry>
        </mxCell>
        <mxCell id="MeSb5IZgdGhtn0hRe0pQ-26" value="" style="endArrow=classic;html=1;rounded=0;entryX=1;entryY=0.5;entryDx=0;entryDy=0;exitX=0;exitY=0.3333333333333333;exitDx=0;exitDy=0;exitPerimeter=0;strokeWidth=2;" parent="WIyWlLk6GJQsqaUBKTNV-1" source="7ZoPHkDEJBF7AUJrN_ak-2" target="MeSb5IZgdGhtn0hRe0pQ-7" edge="1">
          <mxGeometry width="50" height="50" relative="1" as="geometry">
            <mxPoint x="160" y="597" as="sourcePoint" />
            <mxPoint x="332" y="160" as="targetPoint" />
          </mxGeometry>
        </mxCell>
        <mxCell id="MeSb5IZgdGhtn0hRe0pQ-31" value="" style="endArrow=classic;html=1;rounded=0;exitX=0;exitY=0.3333333333333333;exitDx=0;exitDy=0;exitPerimeter=0;entryX=1;entryY=0.5;entryDx=0;entryDy=0;strokeWidth=2;" parent="WIyWlLk6GJQsqaUBKTNV-1" source="7ZoPHkDEJBF7AUJrN_ak-2" target="MeSb5IZgdGhtn0hRe0pQ-10" edge="1">
          <mxGeometry width="50" height="50" relative="1" as="geometry">
            <mxPoint x="120" y="557" as="sourcePoint" />
            <mxPoint x="318" y="692" as="targetPoint" />
          </mxGeometry>
        </mxCell>
        <mxCell id="MeSb5IZgdGhtn0hRe0pQ-33" value="" style="endArrow=classic;html=1;rounded=0;exitX=1;exitY=0.3333333333333333;exitDx=0;exitDy=0;exitPerimeter=0;entryX=0;entryY=0.5;entryDx=0;entryDy=0;strokeWidth=2;" parent="WIyWlLk6GJQsqaUBKTNV-1" source="7ZoPHkDEJBF7AUJrN_ak-1" target="MeSb5IZgdGhtn0hRe0pQ-12" edge="1">
          <mxGeometry width="50" height="50" relative="1" as="geometry">
            <mxPoint x="136" y="573" as="sourcePoint" />
            <mxPoint x="334" y="708" as="targetPoint" />
          </mxGeometry>
        </mxCell>
        <mxCell id="MeSb5IZgdGhtn0hRe0pQ-34" value="" style="endArrow=classic;html=1;rounded=0;exitX=1;exitY=0.3333333333333333;exitDx=0;exitDy=0;exitPerimeter=0;entryX=0;entryY=0.5;entryDx=0;entryDy=0;strokeWidth=2;" parent="WIyWlLk6GJQsqaUBKTNV-1" source="7ZoPHkDEJBF7AUJrN_ak-1" target="MeSb5IZgdGhtn0hRe0pQ-13" edge="1">
          <mxGeometry width="50" height="50" relative="1" as="geometry">
            <mxPoint x="144" y="581" as="sourcePoint" />
            <mxPoint x="342" y="716" as="targetPoint" />
          </mxGeometry>
        </mxCell>
        <mxCell id="MeSb5IZgdGhtn0hRe0pQ-35" value="" style="endArrow=classic;html=1;rounded=0;exitX=0;exitY=0.3333333333333333;exitDx=0;exitDy=0;exitPerimeter=0;entryX=1;entryY=0.5;entryDx=0;entryDy=0;strokeWidth=2;" parent="WIyWlLk6GJQsqaUBKTNV-1" source="7ZoPHkDEJBF7AUJrN_ak-2" target="MeSb5IZgdGhtn0hRe0pQ-13" edge="1">
          <mxGeometry width="50" height="50" relative="1" as="geometry">
            <mxPoint x="152" y="589" as="sourcePoint" />
            <mxPoint x="350" y="724" as="targetPoint" />
          </mxGeometry>
        </mxCell>
        <mxCell id="-nEwxudWKI5WEJn0Q8ZB-0" value="" style="endArrow=classic;html=1;rounded=0;entryX=0;entryY=0.5;entryDx=0;entryDy=0;strokeWidth=2;" parent="WIyWlLk6GJQsqaUBKTNV-1" target="MeSb5IZgdGhtn0hRe0pQ-8" edge="1">
          <mxGeometry width="50" height="50" relative="1" as="geometry">
            <mxPoint x="103" y="540" as="sourcePoint" />
            <mxPoint x="494" y="617" as="targetPoint" />
          </mxGeometry>
        </mxCell>
        <mxCell id="-nEwxudWKI5WEJn0Q8ZB-2" value="" style="endArrow=classic;html=1;rounded=0;exitX=0;exitY=0.3333333333333333;exitDx=0;exitDy=0;exitPerimeter=0;entryX=1;entryY=0.5;entryDx=0;entryDy=0;strokeWidth=2;" parent="WIyWlLk6GJQsqaUBKTNV-1" source="7ZoPHkDEJBF7AUJrN_ak-2" target="MeSb5IZgdGhtn0hRe0pQ-11" edge="1">
          <mxGeometry width="50" height="50" relative="1" as="geometry">
            <mxPoint x="112" y="549" as="sourcePoint" />
            <mxPoint x="310" y="836" as="targetPoint" />
          </mxGeometry>
        </mxCell>
        <mxCell id="-nEwxudWKI5WEJn0Q8ZB-3" value="" style="endArrow=classic;html=1;rounded=0;entryX=0;entryY=0.5;entryDx=0;entryDy=0;exitX=1;exitY=0.3333333333333333;exitDx=0;exitDy=0;exitPerimeter=0;strokeWidth=2;" parent="WIyWlLk6GJQsqaUBKTNV-1" source="7ZoPHkDEJBF7AUJrN_ak-1" target="MeSb5IZgdGhtn0hRe0pQ-4" edge="1">
          <mxGeometry width="50" height="50" relative="1" as="geometry">
            <mxPoint x="744" y="549" as="sourcePoint" />
            <mxPoint x="498" y="302" as="targetPoint" />
          </mxGeometry>
        </mxCell>
        <mxCell id="FA7f4RM6IgSd-hLt_OU6-0" value="" style="endArrow=classic;html=1;rounded=0;entryX=1;entryY=0.5;entryDx=0;entryDy=0;exitX=0;exitY=0.3333333333333333;exitDx=0;exitDy=0;exitPerimeter=0;strokeWidth=2;" parent="WIyWlLk6GJQsqaUBKTNV-1" source="7ZoPHkDEJBF7AUJrN_ak-2" target="MeSb5IZgdGhtn0hRe0pQ-2" edge="1">
          <mxGeometry width="50" height="50" relative="1" as="geometry">
            <mxPoint x="112" y="549" as="sourcePoint" />
            <mxPoint x="302" y="173" as="targetPoint" />
          </mxGeometry>
        </mxCell>
        <mxCell id="FA7f4RM6IgSd-hLt_OU6-1" value="" style="endArrow=classic;html=1;rounded=0;entryX=0;entryY=0.5;entryDx=0;entryDy=0;strokeWidth=2;" parent="WIyWlLk6GJQsqaUBKTNV-1" target="-nEwxudWKI5WEJn0Q8ZB-4" edge="1">
          <mxGeometry width="50" height="50" relative="1" as="geometry">
            <mxPoint x="104" y="533" as="sourcePoint" />
            <mxPoint x="310" y="181" as="targetPoint" />
          </mxGeometry>
        </mxCell>
        <mxCell id="FA7f4RM6IgSd-hLt_OU6-2" value="" style="endArrow=classic;html=1;rounded=0;entryX=1;entryY=0.5;entryDx=0;entryDy=0;exitX=0;exitY=0.3333333333333333;exitDx=0;exitDy=0;exitPerimeter=0;strokeWidth=2;" parent="WIyWlLk6GJQsqaUBKTNV-1" source="7ZoPHkDEJBF7AUJrN_ak-2" target="-nEwxudWKI5WEJn0Q8ZB-5" edge="1">
          <mxGeometry width="50" height="50" relative="1" as="geometry">
            <mxPoint x="128" y="565" as="sourcePoint" />
            <mxPoint x="318" y="189" as="targetPoint" />
          </mxGeometry>
        </mxCell>
        <mxCell id="FA7f4RM6IgSd-hLt_OU6-3" value="" style="endArrow=classic;html=1;rounded=0;exitX=0;exitY=0.3333333333333333;exitDx=0;exitDy=0;exitPerimeter=0;entryX=1;entryY=0.5;entryDx=0;entryDy=0;strokeWidth=2;" parent="WIyWlLk6GJQsqaUBKTNV-1" source="7ZoPHkDEJBF7AUJrN_ak-2" target="MeSb5IZgdGhtn0hRe0pQ-9" edge="1">
          <mxGeometry width="50" height="50" relative="1" as="geometry">
            <mxPoint x="112" y="549" as="sourcePoint" />
            <mxPoint x="307" y="633" as="targetPoint" />
          </mxGeometry>
        </mxCell>
      </root>
    </mxGraphModel>
  </diagram>
</mxfile>
